<svg version="1.1" viewBox="0.0 0.0 960.0 720.0" fill="none" stroke="none" stroke-linecap="square" stroke-miterlimit="10" xmlns:xlink="http://www.w3.org/1999/xlink" xmlns="http://www.w3.org/2000/svg"><clipPath id="p.0"><path d="m0 0l960.0 0l0 720.0l-960.0 0l0 -720.0z" clip-rule="nonzero"/></clipPath><g clip-path="url(#p.0)"><path fill="#000000" fill-opacity="0.0" d="m0 0l960.0 0l0 720.0l-960.0 0z" fill-rule="evenodd"/><path fill="#000000" d="m0 360.0l0 0c0 -198.82251 161.17749 -360.0 360.0 -360.0l0 0c95.477936 0 187.04535 37.928463 254.55847 105.44156c67.51306 67.51309 105.44153 159.0805 105.44153 254.55844l0 0c0 198.82251 -161.17749 360.0 -360.0 360.0l0 0c-198.82251 0 -360.0 -161.17749 -360.0 -360.0z" fill-rule="evenodd"/><path fill="#3d85c6" d="m93.903 155.86473l0 0c0 -8.7560425 7.098175 -15.854218 15.854225 -15.854218l516.638 0c4.204834 0 8.237427 1.6703491 11.210632 4.643585c2.9732666 2.9732513 4.6436157 7.005829 4.6436157 11.210632l0 380.73248c0 8.7560425 -7.0982056 15.854248 -15.854248 15.854248l-516.638 0c-8.75605 0 -15.854225 -7.0982056 -15.854225 -15.854248z" fill-rule="evenodd"/><path fill="#ffffff" d="m408.60513 250.3374l0 0c53.628906 54.028687 53.343628 141.29059 -0.63742065 194.96747c-53.981018 53.67688 -141.24316 53.469055 -194.96794 -0.46429443c-53.724777 -53.93335 -53.594467 -141.19562 0.2911682 -194.96828c53.885635 -53.772644 141.148 -53.71982 194.96846 0.11804199l-48.771637 48.755905c-26.910248 -26.918945 -70.54144 -26.945343 -97.48425 -0.059020996c-26.94281 26.886322 -27.007965 70.517456 -0.14556885 97.48413c26.862396 26.966675 70.49344 27.070587 97.48398 0.23214722c26.990509 -26.83844 27.133148 -70.46939 0.31869507 -97.483734z" fill-rule="evenodd"/><path fill="#ffffff" d="m345.9269 480.8186l0 0c-73.594635 19.44336 -149.02597 -24.415436 -168.53465 -97.99277c-19.508698 -73.5773 24.283081 -149.04756 97.84306 -168.62158c73.55997 -19.57402 149.06906 24.150726 168.7084 97.6933c19.639313 73.54257 -24.018372 149.09045 -97.54346 168.79507l-17.850403 -66.60629c36.762543 -9.852295 58.5914 -47.62625 48.77173 -84.39755c-9.819672 -36.77127 -47.57422 -58.633636 -84.35419 -48.84665c-36.78 9.787018 -58.675888 47.522156 -48.92154 84.31082c9.754349 36.788666 47.47 58.71805 84.267334 48.99637z" fill-rule="evenodd"/><path fill="#ffffff" d="m56.140278 602.0491l0 0c-16.57724 -16.585938 -16.571545 -43.471375 0.012722015 -60.050293l135.02968 -134.98608c7.964035 -7.9614563 18.764267 -12.432831 30.024734 -12.43045c11.260483 0.002380371 22.058807 4.4783325 30.019485 12.443176l0 0l0 0c16.57724 16.585938 16.571533 43.471375 -0.01272583 60.050262l-135.02968 134.98608c-16.584267 16.578918 -43.46698 16.573242 -60.044216 -0.0126953125z" fill-rule="evenodd"/></g></svg>